<?xml version="1.0" encoding="utf-8"?>
<!-- Generator: Adobe Illustrator 21.1.0, SVG Export Plug-In . SVG Version: 6.00 Build 0)  -->
<svg version="1.1" id="Lager_1" xmlns="http://www.w3.org/2000/svg" xmlns:xlink="http://www.w3.org/1999/xlink" x="0px" y="0px"
	 viewBox="0 0 473.9 204.6" style="enable-background:new 0 0 473.9 204.6;" xml:space="preserve">
<style type="text/css">
	.st0{fill:#FFFFFF;}
</style>
<g>
	<g>
		<path class="st0" d="M182.4,108h-23.9V32.8c0-18.1,14.7-32.8,32.8-32.8h78v11.1c0,6.1-4.9,11.1-11.1,11.1h-66
			c-5.4,0-9.8,4.4-9.8,9.8V108z"/>
	</g>
	<g>
		<path class="st0" d="M282.5,108h-78V96.9c0-6.1,4.9-11.1,11.1-11.1h66c5.4,0,9.8-4.4,9.8-9.8V0h23.9v75.3
			C315.3,93.4,300.6,108,282.5,108z"/>
	</g>
	<g>
		<path class="st0" d="M441.1,108h-70.9c-18.1,0-32.8-14.7-32.8-32.8V32.8c0-18.1,14.7-32.8,32.8-32.8h70.9
			c18.1,0,32.8,14.7,32.8,32.8v42.5C473.9,93.3,459.2,108,441.1,108z M371.1,22.1c-5.4,0-9.8,4.4-9.8,9.8v44.2
			c0,5.4,4.4,9.8,9.8,9.8h69.2c5.4,0,9.8-4.4,9.8-9.8V31.9c0-5.4-4.4-9.8-9.8-9.8H371.1z"/>
	</g>
	<path class="st0" d="M103.6,0H12.2v11.1c0,6.1,4.9,11.1,11.1,11.1h79.5c5.4,0,9.8,4.4,9.8,9.8v10.6H32.8C14.9,42.5,0.3,56.9,0,74.7
		C-0.3,93,15.1,108,33.4,108c13.9,0,33.9,0,47.9,0c9.2,0,16.6-7.4,16.6-16.6v-5.6H33.6c-5.4,0-9.8-5.2-9.8-10.6s4.4-10.6,9.8-10.6
		h78.9v14.4v6.8V108h23.9V32.8C136.4,14.7,121.7,0,103.6,0z"/>
	<g>
		<path class="st0" d="M29,194l0.6-1.4c-0.4-8.8-1-12.9-1.9-16.2c-0.4-1.3-0.8-1.8-1.8-1.8c-0.6,0-1.6,0.2-2.8,0.6l-0.5-1.4
			c1.4-1.6,4-3.6,5.7-3.6c1.7,0,2.9,0.9,3.4,2.8c1,3.2,1.7,9.6,1.7,15.2l0.5,0.1c2.6-3.7,4.7-7.2,6.7-11c-0.3-1.9-0.5-3.7-0.7-5.3
			l4-2h0.3c0.6,5.4,1.7,12.5,2.7,18.5l0.5,0.1c3.4-4.2,5.2-7.5,6.1-10.4c-0.7-1.5-1.2-3-1.2-4.2c0-2.6,1.5-3.7,3-3.7
			c1.8,0,2.9,1.4,2.9,3.8c0,6.3-6.4,13.4-13.9,20.7l-1.7-0.7l0.7-1.6c-0.6-3.4-1.2-7.3-1.8-11.2c-3,4.7-6.8,9.7-10.5,13.6L29,194z"
			/>
		<path class="st0" d="M62.5,190.8l3.4-15.2l-4.1-1.3l0.3-1.8l8.8-2.7l0.4,0.4L67,188.9c-0.4,1.8,0,2.2,4.3,2l0.1,1.4
			c-2,1.2-4.6,2.1-6.4,2.1C62.9,194.5,62.1,192.7,62.5,190.8z M67.9,161.8c0-2.2,1.6-4.5,3.7-4.5c1.4,0,2.4,0.8,2.4,2.6
			c0,2.2-1.6,4.5-3.7,4.5C69,164.5,67.9,163.6,67.9,161.8z"/>
		<path class="st0" d="M77.8,188.9l3.3-14.5h-3.8l0.4-1.7l4.8-2.9l2.4-5.3l2.5,0.5l-1.4,6.4h6.5l-0.7,3.1h-6.5l-2.7,11.8
			c-0.4,1.8-0.5,3,0.5,3.7c0.6,0.5,1.6,0.6,3.4,0.6c0.8,0,2-0.1,3.1-0.2v1.5c-2.6,1.4-4.9,2.3-7.6,2.3
			C78.6,194.3,77,192.6,77.8,188.9z"/>
		<path class="st0" d="M109.4,192c0-0.7,0.2-1.9,0.4-2.8l2.3-10.2c0.8-3.3-0.3-4.7-2.6-4.7c-1.7,0-3.9,1-7.7,4.1l-3.4,15.5h-4.2
			l7-32l-4.6-1.3l0.3-1.8l9.4-2.7l0.4,0.5l-4.1,18.4l0.5,0.1c3.4-3.1,6.1-4.8,8.5-4.8c4.1,0,6.1,2.8,4.9,7.9l-2.6,10.8
			c-0.4,1.8,0.2,2.2,4.4,2l0.1,1.4c-2,1.2-4.6,2.1-6.3,2.1C110.1,194.5,109.4,193.3,109.4,192z"/>
		<path class="st0" d="M128.6,202.5l3.9-1.3l5.7-25.5l-3.9-1.3l0.1-1.8l8.7-2.7l0.4,0.4l-1.3,4.3l0.5,0.2c2.7-2.9,4.7-4.6,7.7-4.6
			c3.7,0,6.5,2.9,6.5,7.7c0,8.1-7.3,16.5-14.8,16.5c-1.4,0-3-0.2-3.8-0.4l-1.6,7.1l4.1,1.5l-0.5,1.9h-12.3L128.6,202.5z
			 M152.4,179.5c0-3.8-1.7-5.4-3.6-5.4c-2,0-3.8,1-6.9,4l-2.6,11.8c1.3,0.8,2.9,1.5,4.5,1.5C148.4,191.4,152.4,185.7,152.4,179.5z"
			/>
		<path class="st0" d="M171.2,190.9c2.1,0,4-0.9,5.9-2.6l1.3,1.1c-1.8,2.8-4.9,5.1-9.3,5.1c-5.1,0-8.6-3.3-8.6-8.5
			c0-6.8,5.7-15.7,13.4-15.7c3.9,0,6.5,2.2,6.5,5.4c0,5.6-5.5,8.4-15.1,8C164.9,187.7,166.3,190.9,171.2,190.9z M176,175.3
			c0-1.8-1-3-2.9-3c-3.3,0-6.5,3.8-7.6,9.1C172.5,182,176,179.8,176,175.3z"/>
		<path class="st0" d="M183.4,185.9c0-7.7,6-15.7,14-15.7c4.3,0,8,2.8,8,8.6c0,7.7-6,15.7-14,15.7
			C187.1,194.5,183.4,191.6,183.4,185.9z M200.7,179.9c0-4.5-2-6.6-5.1-6.6c-4.5,0-7.4,6.1-7.4,11.6c0,4.5,2,6.6,5.1,6.6
			C197.7,191.4,200.7,185.4,200.7,179.9z"/>
		<path class="st0" d="M204,202.5l3.9-1.3l5.7-25.5l-3.9-1.3l0.1-1.8l8.7-2.7l0.4,0.4l-1.3,4.3l0.5,0.2c2.7-2.9,4.7-4.6,7.7-4.6
			c3.7,0,6.5,2.9,6.5,7.7c0,8.1-7.3,16.5-14.8,16.5c-1.4,0-3-0.2-3.8-0.4l-1.6,7.1l4.1,1.5l-0.5,1.9h-12.3L204,202.5z M227.8,179.5
			c0-3.8-1.7-5.4-3.6-5.4c-2,0-3.8,1-6.9,4l-2.6,11.8c1.3,0.8,2.9,1.5,4.5,1.5C223.8,191.4,227.8,185.7,227.8,179.5z"/>
		<path class="st0" d="M235.8,190.8l6.4-28.9l-4.5-1.3l0.3-1.8l9.2-2.7l0.4,0.5l-7.2,32.3c-0.4,1.8,0.1,2.2,4.3,2l0.1,1.4
			c-2,1.2-4.7,2.1-6.4,2.1C236.2,194.5,235.4,192.7,235.8,190.8z"/>
		<path class="st0" d="M260,190.9c2.1,0,4-0.9,5.9-2.6l1.3,1.1c-1.8,2.8-4.9,5.1-9.3,5.1c-5.1,0-8.6-3.3-8.6-8.5
			c0-6.8,5.7-15.7,13.4-15.7c3.9,0,6.5,2.2,6.5,5.4c0,5.6-5.5,8.4-15.1,8C253.8,187.7,255.1,190.9,260,190.9z M264.8,175.3
			c0-1.8-1-3-2.9-3c-3.3,0-6.5,3.8-7.6,9.1C261.3,182,264.8,179.8,264.8,175.3z"/>
		<path class="st0" d="M285.3,190.8l3.4-15.2l-4.1-1.3l0.3-1.8l8.8-2.7l0.4,0.4l-4.2,18.6c-0.4,1.8,0,2.2,4.3,2l0.1,1.4
			c-2,1.2-4.6,2.1-6.4,2.1C285.7,194.5,284.9,192.7,285.3,190.8z M290.7,161.8c0-2.2,1.6-4.5,3.7-4.5c1.4,0,2.4,0.8,2.4,2.6
			c0,2.2-1.6,4.5-3.7,4.5C291.9,164.5,290.7,163.6,290.7,161.8z"/>
		<path class="st0" d="M314.6,192c0-0.7,0.2-1.9,0.4-2.8l2.3-10.2c0.8-3.3-0.3-4.7-2.6-4.7c-1.7,0-3.9,1-7.7,4.1l-3.4,15.5h-4.2
			l4.1-18.2l-3.9-1.3l0.1-1.8l8.7-2.7l0.4,0.4l-1.3,4.9l0.5,0.1c3.3-3.1,6.3-5.1,8.8-5.1c4.1,0,6.1,2.8,4.9,7.9l-2.6,10.8
			c-0.4,1.8,0.2,2.2,4.4,2l0.1,1.4c-2,1.2-4.6,2.1-6.3,2.1C315.3,194.5,314.6,193.3,314.6,192z"/>
		<path class="st0" d="M368,192c0-0.7,0.2-1.9,0.4-2.8l2.3-10.2c0.7-3.1-0.1-4.7-2.3-4.7c-1.6,0-3.7,0.9-7.1,3.7l-3.6,15.9h-4.2
			l3.4-14.9c0.7-3.1-0.1-4.7-2.2-4.7c-1.7,0-3.9,1-7.7,4.1l-3.4,15.5h-4.2l4.1-18.2l-3.9-1.3l0.1-1.8l8.7-2.7l0.4,0.4l-1.3,4.9
			l0.5,0.1c3.3-3.1,6.3-5.1,8.9-5.1c3.2,0,4.6,1.9,4.6,4.8l0.5,0.1c3.2-2.9,6.1-4.9,8.7-4.9c4,0,5.7,2.8,4.5,7.9l-2.6,10.8
			c-0.4,1.8,0.2,2.2,4.4,2l0.1,1.4c-2,1.2-4.6,2.1-6.3,2.1C368.7,194.5,368,193.3,368,192z"/>
		<path class="st0" d="M382.4,190.8l3.4-15.2l-4.1-1.3l0.3-1.8l8.8-2.7l0.4,0.4l-4.2,18.6c-0.4,1.8,0,2.2,4.3,2l0.1,1.4
			c-2,1.2-4.6,2.1-6.4,2.1C382.8,194.5,382,192.7,382.4,190.8z M387.8,161.8c0-2.2,1.6-4.5,3.7-4.5c1.4,0,2.4,0.8,2.4,2.6
			c0,2.2-1.6,4.5-3.7,4.5C389,164.5,387.8,163.6,387.8,161.8z"/>
		<path class="st0" d="M411.7,192c0-0.7,0.2-1.9,0.4-2.8l2.3-10.2c0.8-3.3-0.3-4.7-2.6-4.7c-1.7,0-3.9,1-7.7,4.1l-3.4,15.5h-4.2
			l4.1-18.2l-3.9-1.3l0.1-1.8l8.7-2.7l0.4,0.4l-1.3,4.9l0.5,0.1c3.3-3.1,6.3-5.1,8.8-5.1c4.1,0,6.1,2.8,4.9,7.9l-2.6,10.8
			c-0.4,1.8,0.2,2.2,4.4,2l0.1,1.4c-2,1.2-4.6,2.1-6.3,2.1C412.4,194.5,411.7,193.3,411.7,192z"/>
		<path class="st0" d="M424,186.8c0-8.1,7.3-16.5,14.8-16.5c1.7,0,3,0.4,3.8,0.7l1.9-9l-4.6-1.3l0.3-1.8l9.4-2.7l0.4,0.5l-7.1,32.4
			c-0.4,1.7,0.2,2.1,4.4,1.9l0.1,1.4c-2,1.2-4.1,2.1-5.8,2.1c-2.7,0-3.1-2.1-2.7-4.7l-0.5-0.2c-2.7,2.9-4.7,4.8-7.8,4.8
			C426.9,194.5,424,191.6,424,186.8z M439.2,186.3l2.6-11.5c-1.3-0.8-2.9-1.5-4.5-1.5c-4.6,0-8.7,5.7-8.7,11.9
			c0,3.8,1.7,5.4,3.6,5.4C434.2,190.6,436.1,189.3,439.2,186.3z"/>
	</g>
</g>
</svg>
